<svg xmlns="http://www.w3.org/2000/svg" xmlns:xlink="http://www.w3.org/1999/xlink" width="800" zoomAndPan="magnify" viewBox="0 0 600 265.499997" height="354" preserveAspectRatio="xMidYMid meet" version="1.0"><defs><g/></defs><g fill="#ffffff" fill-opacity="1"><g transform="translate(0.563913, 213.878464)"><g><path d="M 70.859375 2.296875 C 59.785156 2.296875 49.925781 0.929688 41.28125 -1.796875 C 32.644531 -4.535156 25.445312 -8.128906 19.6875 -12.578125 C 13.925781 -17.023438 9.515625 -21.910156 6.453125 -27.234375 L 23.84375 -48.453125 L 26.578125 -48.453125 C 31.390625 -41.304688 37.492188 -35.617188 44.890625 -31.390625 C 52.296875 -27.160156 60.953125 -25.046875 70.859375 -25.046875 C 79.316406 -25.046875 85.695312 -26.832031 90 -30.40625 C 94.300781 -33.976562 96.453125 -38.898438 96.453125 -45.171875 C 96.453125 -48.960938 95.757812 -52.128906 94.375 -54.671875 C 92.988281 -57.222656 90.691406 -59.410156 87.484375 -61.234375 C 84.273438 -63.054688 79.9375 -64.625 74.46875 -65.9375 L 53.921875 -70.640625 C 39.554688 -73.921875 28.851562 -79.367188 21.8125 -86.984375 C 14.78125 -94.609375 11.265625 -104.507812 11.265625 -116.6875 C 11.265625 -125.726562 13.523438 -133.675781 18.046875 -140.53125 C 22.566406 -147.382812 29.144531 -152.707031 37.78125 -156.5 C 46.425781 -160.289062 56.757812 -162.1875 68.78125 -162.1875 C 81.101562 -162.1875 91.65625 -160.5625 100.4375 -157.3125 C 109.226562 -154.070312 116.648438 -149.097656 122.703125 -142.390625 L 107.0625 -120.953125 L 104.328125 -120.953125 C 99.804688 -125.691406 94.628906 -129.242188 88.796875 -131.609375 C 82.960938 -133.984375 76.289062 -135.171875 68.78125 -135.171875 C 60.113281 -135.171875 53.519531 -133.640625 49 -130.578125 C 44.476562 -127.515625 42.21875 -123.285156 42.21875 -117.890625 C 42.21875 -112.859375 43.800781 -108.847656 46.96875 -105.859375 C 50.144531 -102.867188 55.628906 -100.535156 63.421875 -98.859375 L 84.421875 -94.484375 C 99.953125 -91.203125 111.21875 -85.640625 118.21875 -77.796875 C 125.21875 -69.960938 128.71875 -59.742188 128.71875 -47.140625 C 128.71875 -37.148438 126.566406 -28.453125 122.265625 -21.046875 C 117.960938 -13.648438 111.472656 -7.910156 102.796875 -3.828125 C 94.117188 0.253906 83.472656 2.296875 70.859375 2.296875 Z M 70.859375 2.296875 "/></g></g></g><g fill="#ffffff" fill-opacity="1"><g transform="translate(137.910449, 213.878464)"><g><path d="M 119.203125 -53.484375 L 41.671875 -53.484375 C 42.546875 -42.984375 45.53125 -35.34375 50.625 -30.5625 C 55.726562 -25.789062 62.691406 -23.40625 71.515625 -23.40625 C 78.441406 -23.40625 84.054688 -24.695312 88.359375 -27.28125 C 92.660156 -29.875 96.125 -33.796875 98.75 -39.046875 L 101.046875 -39.046875 L 121.171875 -26.140625 C 117.234375 -17.679688 111.289062 -10.828125 103.34375 -5.578125 C 95.394531 -0.328125 84.785156 2.296875 71.515625 2.296875 C 59.054688 2.296875 48.285156 -0.0703125 39.203125 -4.8125 C 30.128906 -9.550781 23.128906 -16.601562 18.203125 -25.96875 C 13.285156 -35.34375 10.828125 -46.769531 10.828125 -60.25 C 10.828125 -73.957031 13.414062 -85.515625 18.59375 -94.921875 C 23.769531 -104.328125 30.769531 -111.34375 39.59375 -115.96875 C 48.414062 -120.601562 58.328125 -122.921875 69.328125 -122.921875 C 86.390625 -122.921875 99.457031 -118.398438 108.53125 -109.359375 C 117.613281 -100.316406 122.15625 -87.046875 122.15625 -69.546875 C 122.15625 -63.203125 121.9375 -58.285156 121.5 -54.796875 Z M 93.171875 -73.046875 C 92.878906 -82.234375 90.742188 -88.921875 86.765625 -93.109375 C 82.796875 -97.304688 76.984375 -99.40625 69.328125 -99.40625 C 54.023438 -99.40625 45.023438 -90.617188 42.328125 -73.046875 Z M 93.171875 -73.046875 "/></g></g></g><g fill="#ffffff" fill-opacity="1"><g transform="translate(269.023901, 213.878464)"><g><path d="M 47.03125 2.296875 C 39.300781 2.296875 32.59375 0.875 26.90625 -1.96875 C 21.21875 -4.8125 16.84375 -8.984375 13.78125 -14.484375 C 10.71875 -19.992188 9.1875 -26.613281 9.1875 -34.34375 C 9.1875 -41.488281 10.71875 -47.484375 13.78125 -52.328125 C 16.84375 -57.171875 21.582031 -61.140625 28 -64.234375 C 34.414062 -67.335938 42.800781 -69.726562 53.15625 -71.40625 C 60.363281 -72.570312 65.84375 -73.847656 69.59375 -75.234375 C 73.351562 -76.617188 75.890625 -78.1875 77.203125 -79.9375 C 78.515625 -81.6875 79.171875 -83.910156 79.171875 -86.609375 C 79.171875 -90.472656 77.820312 -93.425781 75.125 -95.46875 C 72.425781 -97.507812 67.941406 -98.53125 61.671875 -98.53125 C 54.972656 -98.53125 48.597656 -97.035156 42.546875 -94.046875 C 36.492188 -91.054688 31.242188 -87.117188 26.796875 -82.234375 L 24.609375 -82.234375 L 11.921875 -101.375 C 18.046875 -108.15625 25.519531 -113.441406 34.34375 -117.234375 C 43.164062 -121.023438 52.785156 -122.921875 63.203125 -122.921875 C 79.171875 -122.921875 90.726562 -119.53125 97.875 -112.75 C 105.019531 -105.96875 108.59375 -96.34375 108.59375 -83.875 L 108.59375 -31.5 C 108.59375 -26.101562 110.960938 -23.40625 115.703125 -23.40625 C 117.523438 -23.40625 119.3125 -23.734375 121.0625 -24.390625 L 122.59375 -23.953125 L 124.78125 -2.84375 C 123.101562 -1.75 120.769531 -0.851562 117.78125 -0.15625 C 114.789062 0.53125 111.507812 0.875 107.9375 0.875 C 100.71875 0.875 95.082031 -0.507812 91.03125 -3.28125 C 86.988281 -6.050781 84.09375 -10.390625 82.34375 -16.296875 L 80.046875 -16.515625 C 74.140625 -3.972656 63.132812 2.296875 47.03125 2.296875 Z M 56.640625 -20.34375 C 63.640625 -20.34375 69.234375 -22.691406 73.421875 -27.390625 C 77.617188 -32.097656 79.71875 -38.644531 79.71875 -47.03125 L 79.71875 -59.265625 L 77.640625 -59.703125 C 75.816406 -58.242188 73.425781 -57.023438 70.46875 -56.046875 C 67.519531 -55.066406 63.273438 -54.101562 57.734375 -53.15625 C 51.179688 -52.0625 46.460938 -50.179688 43.578125 -47.515625 C 40.703125 -44.859375 39.265625 -41.085938 39.265625 -36.203125 C 39.265625 -31.023438 40.796875 -27.085938 43.859375 -24.390625 C 46.921875 -21.691406 51.179688 -20.34375 56.640625 -20.34375 Z M 56.640625 -20.34375 "/></g></g></g><g fill="#ff90f6" fill-opacity="1"><g transform="translate(396.215254, 213.878464)"><g><path d="M 17.390625 0 L 17.390625 -120.625 L 46.484375 -120.625 L 46.484375 -102.90625 L 48.78125 -102.359375 C 56.28125 -116.066406 68.453125 -122.921875 85.296875 -122.921875 C 99.222656 -122.921875 109.445312 -119.128906 115.96875 -111.546875 C 122.5 -103.960938 125.765625 -92.914062 125.765625 -78.40625 L 125.765625 0 L 95.46875 0 L 95.46875 -74.6875 C 95.46875 -82.707031 93.863281 -88.484375 90.65625 -92.015625 C 87.445312 -95.554688 82.304688 -97.328125 75.234375 -97.328125 C 66.554688 -97.328125 59.796875 -94.519531 54.953125 -88.90625 C 50.109375 -83.289062 47.6875 -74.46875 47.6875 -62.4375 L 47.6875 0 Z M 17.390625 0 "/></g></g></g><g fill="#ff90f6" fill-opacity="1"><g transform="translate(537.498474, 213.878464)"><g><path d="M 30.84375 0.984375 C 26.976562 0.984375 23.566406 0.203125 20.609375 -1.359375 C 17.660156 -2.929688 15.398438 -5.101562 13.828125 -7.875 C 12.265625 -10.644531 11.484375 -13.78125 11.484375 -17.28125 C 11.484375 -20.78125 12.265625 -23.914062 13.828125 -26.6875 C 15.398438 -29.457031 17.660156 -31.644531 20.609375 -33.25 C 23.566406 -34.851562 26.976562 -35.65625 30.84375 -35.65625 C 34.78125 -35.65625 38.222656 -34.867188 41.171875 -33.296875 C 44.128906 -31.734375 46.390625 -29.566406 47.953125 -26.796875 C 49.523438 -24.023438 50.3125 -20.890625 50.3125 -17.390625 C 50.3125 -12.066406 48.539062 -7.671875 45 -4.203125 C 41.46875 -0.742188 36.75 0.984375 30.84375 0.984375 Z M 30.84375 0.984375 "/></g></g></g></svg>